#!OML:ASF H:\Terrain\Patient Classification 1\Animal1\Tuesday\Animal1.ASF
:FULLY-SPECIFIED
:DEGREES
2881
root 6.8458 16.8918 2.67701 -169.784 -127.47 -176.94
lowerback -9.52577 -0.846253 -0.363271
upperback -0.887668 -1.13356 0.604509
thorax 4.43783 -0.58043 0.682506
lowerneck 8.27224 6.42758 -3.66277
upperneck -1.65762 8.49532 7.37538
head -2.52036 4.03196 2.62272
rclavicle 8.87574e-014 1.19271e-014
rhumerus -31.5953 0.0590222 -86.6025
rradius 10.6578
rwrist -17.1246
rhand -8.11056 7.34827
rfingers 7.12502
rthumb 17.8025 -21.8569
lclavicle 8.87574e-014 1.19271e-014
lhumerus -40.0262 31.3516 68.0802
lradius 10.1387
lwrist -44.4135
lhand 45.1626 49.7062
lfingers 7.12502
lthumb 66.5106 54.1487
rfemur -19.2371 37.4647 18.3718
rtibia 18.7685
rfoot -65.7828 -35.6075
rtoes 59.5088
lfemur -15.9418 -36.8602 -18.8336
ltibia 10.2608
lfoot -53.4338 40.6847
ltoes 55.9074
2882
root 6.83328 16.8944 2.68544 -170.141 -127.327 -176.428
lowerback -9.65214 -0.849664 -0.732736
upperback -1.17508 -1.09946 0.559944
thorax 4.2143 -0.569716 0.849079
lowerneck 8.05232 6.38679 -4.08609
upperneck -1.62524 8.42544 7.83708
head -2.5172 3.99323 2.8665
rclavicle 1.99282e-014 -3.57812e-015
rhumerus -32.0114 -0.516428 -86.2012
rradius 10.4895
rwrist -15.8632
rhand -7.36124 7.98674
rfingers 7.12502
rthumb 18.5234 -21.1513
lclavicle 1.99282e-014 -3.57812e-015
lhumerus -40.4034 31.5382 67.8246
lradius 9.9789
lwrist -45.0709
lhand 46.4479 51.261
lfingers 7.12502
lthumb 67.4725 53.6952
rfemur -19.2386 37.0552 18.084
rtibia 18.7629
rfoot -64.915 -36.3374
rtoes 59.1952
lfemur -15.9505 -37.0825 -19.142
ltibia 10.272
lfoot -53.253 41.28
ltoes 55.4587
2883
root 6.81932 16.8957 2.70282 -170.944 -127.033 -175.545
lowerback -9.71629 -0.789046 -1.21295
upperback -1.41304 -0.964051 0.400095
thorax 4.00435 -0.508297 0.97205
lowerneck 7.5735 6.18721 -3.71242
upperneck -1.28513 8.16676 7.44799
head -2.25455 3.88893 2.69651
rclavicle 4.70126e-014 1.35174e-014
rhumerus -32.2818 -0.653908 -86.1184
rradius 9.67224
rwrist -14.1216
rhand -6.75067 11.1161
rfingers 7.12502
rthumb 19.1106 -17.965
lclavicle 4.70126e-014 1.35174e-014
lhumerus -40.6067 31.7616 67.7442
lradius 9.70817
lwrist -45.7032
lhand 46.0708 51.3382
lfingers 7.12502
lthumb 67.1934 54.3797
rfemur -19.0537 36.4975 17.6837
rtibia 18.8673
rfoot -63.8786 -36.6817
rtoes 58.9345
lfemur -15.5476 -37.2262 -19.91
ltibia 10.0495
lfoot -52.2279 42.746
ltoes 54.296
2884
root 6.80503 16.8953 2.72414 -171.385 -126.833 -175.319
lowerback -9.63616 -0.641017 -1.22135
upperback -1.61254 -0.766644 0.30551
thorax 3.74575 -0.408665 0.906225
lowerneck 6.84236 5.92169 -3.24956
upperneck -0.663165 7.8162 7.12153
head -1.85292 3.74461 2.54553
rclavicle 4.69629e-014 -8.74653e-015
rhumerus -32.5889 -0.987792 -85.9979
rradius 9.16445
rwrist -13.2055
rhand -7.19371 13.3895
rfingers 7.12502
rthumb 18.6845 -15.7332
lclavicle 4.69629e-014 -8.74653e-015
lhumerus -40.6871 31.8565 67.8095
lradius 9.26628
lwrist -46.1939
lhand 44.4874 50.1735
lfingers 7.12502
lthumb 65.9939 55.6038
rfemur -18.6532 35.9524 17.8773
rtibia 19.0854
rfoot -63.0351 -36.717
rtoes 58.6585
lfemur -14.6912 -36.5992 -20.5525
ltibia 9.53866
lfoot -50.5058 43.6829
ltoes 53.2007
2885
root 6.7891 16.8956 2.73612 -171.055 -127.038 -175.807
lowerback -9.75179 -0.565898 -0.870649
upperback -1.80462 -0.706091 0.324588
thorax 3.60489 -0.374401 0.736261
lowerneck 5.99429 5.70497 -3.20641
upperneck -0.105099 7.52021 7.44318
head -1.51783 3.61614 2.68523
rclavicle 6.02815e-014 7.95139e-016
rhumerus -32.7736 -1.46593 -85.95
rradius 9.07437
rwrist -12.5383
rhand -5.77296 12.592
rfingers 7.12502
rthumb 20.0506 -16.3934
lclavicle 6.02815e-014 7.95139e-016
lhumerus -40.5563 31.7966 67.8338
lradius 8.90898
lwrist -47.0835
lhand 43.3393 48.3309
lfingers 7.12502
lthumb 65.0987 55.3425
rfemur -18.4561 35.7957 18.3642
rtibia 19.1508
rfoot -62.9737 -36.9052
rtoes 58.4488
lfemur -14.5005 -36.245 -20.2629
ltibia 9.30426
lfoot -50.5886 43.0654
ltoes 53.7259
2886
root 6.77212 16.8977 2.74658 -171.043 -127.278 -175.945
lowerback -9.85458 -0.574069 -0.773975
upperback -1.95458 -0.72791 0.300135
thorax 3.50501 -0.384288 0.653553
lowerneck 5.0406 5.58049 -2.85131
upperneck 0.548672 7.35049 7.53258
head -1.11725 3.55956 2.68882
rclavicle -4.94477e-015 -1.19271e-015
rhumerus -32.8361 -1.8394 -85.9762
rradius 8.92423
rwrist -11.7427
rhand -4.1798 11.3378
rfingers 7.12502
rthumb 21.5813 -17.4797
lclavicle -4.94477e-015 -1.19271e-015
lhumerus -40.4545 31.7908 67.6796
lradius 8.94924
lwrist -48.8917
lhand 44.8796 47.9442
lfingers 7.12502
lthumb 66.2949 52.8061
rfemur -18.0981 35.7884 18.6254
rtibia 18.9777
rfoot -63.085 -37.1664
rtoes 58.1275
lfemur -14.4707 -35.9698 -20.2646
ltibia 9.54362
lfoot -51.4893 41.735
ltoes 54.7954
2887
root 6.75539 16.9003 2.76061 -171.354 -127.201 -175.769
lowerback -9.91909 -0.630299 -0.897184
upperback -2.16015 -0.794101 0.318264
thorax 3.33022 -0.418486 0.733827
lowerneck 4.45057 5.62028 -2.48783
upperneck 1.14285 7.38911 7.29849
head -0.799336 3.60401 2.5677
rclavicle -9.61621e-015 1.35174e-014
rhumerus -33.0362 -1.71817 -85.9618
rradius 8.76941
rwrist -11.539
rhand -3.76168 10.8761
rfingers 7.12502
rthumb 21.9828 -17.8947
lclavicle -9.61621e-015 1.35174e-014
lhumerus -41.0601 32.0441 67.1898
lradius 9.10253
lwrist -49.802
lhand 45.7299 49.0251
lfingers 7.12502
lthumb 66.9388 52.6025
rfemur -17.6214 35.4153 18.7629
rtibia 18.7262
rfoot -62.0959 -38.0494
rtoes 57.4601
lfemur -14.1777 -35.4612 -20.7913
ltibia 9.89783
lfoot -51.0463 41.4993
ltoes 54.7658
2888
root 6.74066 16.9007 2.77314 -171.159 -127.23 -176.046
lowerback -10.146 -0.722684 -0.733461
upperback -2.44731 -0.94326 0.452196
thorax 3.16009 -0.4925 0.7609
lowerneck 4.06413 5.70845 -2.39358
upperneck 1.69382 7.48124 7.17695
head -0.552898 3.66821 2.52698
rclavicle -2.20899e-014 1.74931e-014
rhumerus -33.3641 -1.49565 -85.9543
rradius 8.77502
rwrist -11.7181
rhand -4.42507 10.4162
rfingers 7.12502
rthumb 21.3457 -18.4281
lclavicle -2.20899e-014 1.74931e-014
lhumerus -42.0574 32.2902 66.5262
lradius 9.11411
lwrist -49.3799
lhand 44.7827 51.1587
lfingers 7.12502
lthumb 66.2207 56.1625
rfemur -17.3736 35.0021 19.0836
rtibia 18.5053
rfoot -61.461 -38.3909
rtoes 57.4623
lfemur -14.1681 -34.9878 -20.7931
ltibia 10.1943
lfoot -49.3356 42.2868
ltoes 53.7907
2889
root 6.72889 16.9019 2.78693 -170.997 -127.457 -176.29
lowerback -10.3296 -0.767118 -0.492718
upperback -2.71917 -1.03462 0.527702
thorax 2.97813 -0.537752 0.691714
lowerneck 3.28413 5.67593 -2.43118
upperneck 2.55061 7.39277 7.30304
head -0.151929 3.6521 2.61584
rclavicle 1.31074e-014 1.98785e-014
rhumerus -33.677 -1.61171 -85.8965
rradius 8.69156
rwrist -11.235
rhand -4.77749 9.77773
rfingers 7.12502
rthumb 21.0072 -19.1045
lclavicle 1.31074e-014 1.98785e-014
lhumerus -42.5804 32.3683 66.1912
lradius 9.17301
lwrist -50.0609
lhand 44.3643 51.3729
lfingers 7.12502
lthumb 65.8988 56.9786
rfemur -17.0588 34.9735 19.3233
rtibia 18.2032
rfoot -62.0192 -37.8606
rtoes 57.959
lfemur -14.2626 -34.1162 -20.849
ltibia 10.6598
lfoot -46.7116 42.9849
ltoes 52.0755
2890
root 6.71628 16.9031 2.80366 -171.066 -127.676 -176.391
lowerback -10.3682 -0.772489 -0.310306
upperback -2.90118 -1.06477 0.557514
thorax 2.80835 -0.552836 0.617074
lowerneck 2.02014 5.55785 -2.4141
upperneck 3.66923 7.17908 7.43265
head 0.422764 3.58771 2.72494
rclavicle -1.00672e-013 5.1684e-015
rhumerus -33.8426 -1.8347 -85.7646
rradius 8.51654
rwrist -10.4256
rhand -4.24225 9.19175
rfingers 7.12502
rthumb 21.5213 -19.6326
lclavicle -1.00672e-013 5.1684e-015
lhumerus -42.6661 32.4977 66.1469
lradius 9.21809
lwrist -51.7942
lhand 45.2325 49.9115
lfingers 7.12502
lthumb 66.5637 54.2492
rfemur -16.5609 34.747 19.6045
rtibia 17.9531
rfoot -62.1295 -37.6023
rtoes 57.8434
lfemur -14.124 -33.6198 -21.0399
ltibia 11.0113
lfoot -45.6883 42.8642
ltoes 51.535
2891
root 6.70133 16.9007 2.81915 -170.736 -127.753 -176.968
lowerback -10.4088 -0.720046 0.0575953
upperback -3.05122 -1.04098 0.70301
thorax 2.67104 -0.541167 0.564406
lowerneck 0.644393 5.44157 -2.23362
upperneck 4.75519 6.97447 7.34907
head 1.02399 3.52997 2.74499
rclavicle -5.06466e-014 -1.59028e-015
rhumerus -33.9293 -2.00512 -85.6007
rradius 8.46736
rwrist -10.545
rhand -4.68894 9.06201
rfingers 7.12502
rthumb 21.0923 -19.8108
lclavicle -5.06466e-014 -1.59028e-015
lhumerus -42.7503 32.6793 66.1226
lradius 9.17671
lwrist -53.146
lhand 46.1892 49.525
lfingers 7.12502
lthumb 67.2813 52.3776
rfemur -16.2098 34.0525 20.2715
rtibia 17.9365
rfoot -60.9898 -38.1832
rtoes 57.13
lfemur -13.8474 -33.6431 -20.7961
ltibia 10.9707
lfoot -46.4285 42.2658
ltoes 52.331
2892
root 6.68596 16.894 2.83158 -170.552 -127.661 -177.06
lowerback -10.704 -0.639397 0.0447387
upperback -3.30022 -0.941604 0.782389
thorax 2.5752 -0.494164 0.664584
lowerneck -0.449633 5.32268 -2.11194
upperneck 5.67239 6.77216 7.27232
head 1.52666 3.46305 2.768
rclavicle 6.52573e-014 1.43125e-014
rhumerus -34.1584 -2.19039 -85.3906
rradius 8.49271
rwrist -11.195
rhand -5.30183 8.95844
rfingers 7.12502
rthumb 20.5034 -19.9789
lclavicle 6.52573e-014 1.43125e-014
lhumerus -42.8176 32.8157 66.1089
lradius 9.01282
lwrist -54.2493
lhand 46.0723 49.5043
lfingers 7.12502
lthumb 67.1945 52.5434
rfemur -16.2795 33.5053 20.3852
rtibia 17.9446
rfoot -59.6511 -39.2291
rtoes 56.6849
lfemur -13.9773 -34.0513 -20.5727
ltibia 10.9457
lfoot -48.0716 41.4273
ltoes 53.2609
2893
root 6.66924 16.8885 2.84483 -170.994 -127.542 -176.482
lowerback -11.0017 -0.620287 -0.314122
upperback -3.51856 -0.880196 0.683062
thorax 2.51435 -0.465795 0.769704
lowerneck -1.41827 5.26417 -1.75123
upperneck 6.62024 6.64006 7.13752
head 2.03055 3.43139 2.72916
rclavicle 4.54596e-014 1.63003e-014
rhumerus -34.3926 -2.34879 -85.3102
rradius 8.43878
rwrist -11.0528
rhand -4.89967 8.99474
rfingers 7.12502
rthumb 20.8898 -19.9005
lclavicle 4.54596e-014 1.63003e-014
lhumerus -42.8903 32.9346 65.9085
lradius 8.77616
lwrist -55.1753
lhand 47.2555 50.3171
lfingers 7.12502
lthumb 68.0609 51.3978
rfemur -16.1947 33.089 20.0898
rtibia 17.8993
rfoot -58.9766 -39.4519
rtoes 56.904
lfemur -13.9973 -34.1367 -20.943
ltibia 11.0363
lfoot -48.5658 41.0932
ltoes 53.5586
2894
root 6.64905 16.8899 2.86329 -171.371 -127.399 -176.474
lowerback -10.9979 -0.586793 -0.265355
upperback -3.57838 -0.841611 0.663796
thorax 2.44857 -0.447053 0.727691
lowerneck -2.34685 5.30313 -1.3113
upperneck 7.42335 6.63738 6.98575
head 2.48452 3.46288 2.66915
rclavicle 6.67792e-014 -7.55382e-015
rhumerus -34.5178 -2.42788 -85.3207
rradius 8.44362
rwrist -9.90935
rhand -2.99995 9.32189
rfingers 7.12502
rthumb 22.714 -19.3612
lclavicle 6.67792e-014 -7.55382e-015
lhumerus -43.0923 33.1138 65.5777
lradius 8.69505
lwrist -55.9932
lhand 48.4165 50.9854
lfingers 7.12502
lthumb 68.8825 49.9864
rfemur -15.6075 32.6751 20.4532
rtibia 17.9971
rfoot -58.585 -38.9889
rtoes 56.8794
lfemur -13.1615 -33.3436 -21.514
ltibia 10.8515
lfoot -46.6197 42.0669
ltoes 52.7224
2895
root 6.62858 16.888 2.88128 -171.579 -127.305 -176.635
lowerback -11.0124 -0.560364 -0.173472
upperback -3.65785 -0.82113 0.755086
thorax 2.37375 -0.437362 0.773565
lowerneck -3.04028 5.33312 -1.30223
upperneck 7.88891 6.65277 6.97193
head 2.76986 3.48793 2.71116
rclavicle 6.4605e-014 1.07344e-014
rhumerus -34.6455 -2.43851 -85.19
rradius 8.45063
rwrist -8.9997
rhand -0.554589 9.63797
rfingers 7.12502
rthumb 25.0591 -18.738
lclavicle 6.4605e-014 1.07344e-014
lhumerus -43.4401 33.339 65.3432
lradius 8.66153
lwrist -56.3223
lhand 46.8311 50.4243
lfingers 7.12502
lthumb 67.7533 52.2254
rfemur -15.1275 32.5273 20.8656
rtibia 18.1615
rfoot -58.8095 -38.1868
rtoes 57.0797
lfemur -12.3345 -32.5226 -21.91
ltibia 10.5456
lfoot -45.3873 42.2876
ltoes 52.3391
